<svg width="37" height="37" viewBox="0 0 37 37" fill="none" xmlns="http://www.w3.org/2000/svg">
<circle cx="18.5" cy="18.5" r="18.5" fill="#1C1C1C"/>
<path d="M26.6048 8C26.2795 7.99945 25.9597 8.15503 25.7635 8.44437C24.7307 9.96679 25.3033 11.199 25.833 12.3383C26.093 12.8977 26.331 13.4127 25.9315 13.7156C25.486 14.0535 25.3992 14.6894 25.737 15.1348C26.0749 15.5803 26.7108 15.6678 27.1562 15.3299C28.8606 14.036 28.2957 12.8177 27.6775 11.4883C27.3786 10.8457 27.0556 10.1492 27.4406 9.58172C27.7546 9.11883 27.6339 8.48884 27.171 8.17481C26.9974 8.05706 26.7999 8.00035 26.6048 8.00002L26.6048 8ZM7.0652 10.3085C5.53177 10.3085 4.07262 11.0639 3.19225 12.3204C2.85666 12.7975 2.97181 13.4569 3.44888 13.7925C3.92595 14.1281 4.58479 14.013 4.9204 13.5359C5.76872 12.3266 7.43186 12.0714 8.59826 12.9125L8.5995 12.9112C8.66721 12.9608 8.74177 13.0202 8.81799 13.0897L8.82662 13.0984L8.8451 13.1181C8.91524 13.1828 8.98469 13.2523 9.04819 13.3254L9.06481 13.3464L9.06728 13.3507L9.06789 13.3501L9.08759 13.3753L9.09312 13.3815C9.48311 13.8151 10.152 13.8496 10.5855 13.4597C11.0173 13.0715 11.0544 12.4069 10.6698 11.9728C9.78161 10.931 8.44505 10.3086 7.06522 10.3086L7.0652 10.3085ZM16.6187 10.3085C15.0853 10.3085 13.6261 11.0639 12.7457 12.3204C12.4101 12.7975 12.5247 13.4569 13.0017 13.7925C13.4788 14.1281 14.1383 14.013 14.4739 13.5359C15.3222 12.3266 16.9847 12.0714 18.1511 12.9125L18.1524 12.9112C18.2201 12.9608 18.2953 13.0202 18.3715 13.0897L18.3801 13.0984L18.3986 13.1181C18.4688 13.1828 18.5376 13.2523 18.6011 13.3254L18.6183 13.3464L18.6208 13.3507L18.6214 13.3501L18.6411 13.3753L18.6466 13.3815C19.0366 13.815 19.7055 13.8496 20.139 13.4596C20.5708 13.0715 20.6073 12.4069 20.2227 11.9727C19.3345 10.9309 17.9986 10.3086 16.6187 10.3086L16.6187 10.3085ZM20.5594 16.9257C20.0976 16.9257 19.7224 17.301 19.7224 17.7627L19.7261 17.8249L19.7187 23.09H19.7156V23.0937H19.7187C19.7196 24.2013 20.174 25.2105 20.9016 25.9395L20.904 25.9407L20.9053 25.9426L20.9096 25.9463C21.6377 26.671 22.6405 27.1219 23.7419 27.1243V27.1273H28.0481C28.0806 27.1273 28.1132 27.1245 28.1447 27.1212C28.4081 27.113 28.6633 27.0807 28.9067 27.0258C29.1858 26.9622 29.4513 26.8711 29.6994 26.7568C30.7472 26.2726 31.5578 25.3473 31.8891 24.2225H32.4812V24.2194C33.1753 24.2184 33.8068 23.9348 34.2629 23.4778C34.7146 23.0255 34.9965 22.3983 34.9989 21.709V21.7059H35.002V19.4466H34.9989C34.998 18.7539 34.7141 18.1225 34.2585 17.6674L34.2604 17.6661C33.8082 17.2139 33.1801 16.9323 32.4879 16.9295H32.4849V16.9257H20.5595H20.5594ZM32.1068 18.8484C32.3176 18.8497 32.5123 18.9394 32.6558 19.0829L32.6577 19.081L32.6589 19.0829C32.8019 19.2254 32.8917 19.4224 32.8921 19.6368H32.8891V21.7293H32.8921C32.8904 21.9418 32.8004 22.1388 32.6583 22.2813C32.5157 22.4244 32.3179 22.5136 32.1031 22.514V22.5109H30.9209V22.5134C30.5264 22.5134 30.1881 22.8154 30.1522 23.2162C30.0791 24.0071 29.5764 24.6815 28.8794 25.0034C28.7418 25.0668 28.5983 25.1171 28.4536 25.1499C28.3211 25.1796 28.1853 25.198 28.0498 25.2029L27.9969 25.2016H24.0082V25.2047C23.4184 25.2038 22.8789 24.9613 22.4844 24.572L22.4702 24.5585C22.0735 24.1621 21.8257 23.6145 21.8252 23.0149H21.8283V23.0119H21.8252L21.8308 18.8515H32.1068V18.8484L32.1068 18.8484ZM30.5412 19.8952V21.7416H31.164C31.5664 21.7416 31.8957 21.4121 31.8957 21.0092V20.6282C31.8957 20.2253 31.5665 19.8952 31.164 19.8952H30.5412V19.8952ZM8.90783 20.134C8.33076 20.134 7.8622 20.6026 7.8622 21.1797C7.8622 21.7568 8.33076 22.2253 8.90783 22.2253L14.581 22.2259C15.158 22.2259 15.6266 21.7574 15.6266 21.1803C15.6266 20.6032 15.158 20.1347 14.581 20.1347L8.90783 20.134Z" fill="white"/>
</svg>
